<svg xmlns="http://www.w3.org/2000/svg" xmlns:xlink="http://www.w3.org/1999/xlink" width="620.64pt" height="123.25pt" viewBox="0 0 620.64 123.25"><g id="surface1"><path style=" stroke:none;fill-rule:evenodd;fill:rgb(13.299561%,11.799622%,12.199402%);fill-opacity:1;" d="M 306.175781 23.519531 L 305.878906 18.378906 L 297.871094 9.210938 Z M 303.109375 26.605469 L 300.273438 22.238281 L 288.765625 18.320313 Z M 302.007813 30.757813 L 297.402344 28.394531 L 277.214844 30.757813 Z M 303.109375 34.925781 L 297.914063 35.222656 L 288.765625 43.195313 Z M 306.175781 37.996094 L 301.789063 40.832031 L 297.871094 52.324219 Z M 314.480469 37.996094 L 314.757813 43.15625 L 322.742188 52.324219 Z M 317.507813 34.925781 L 320.402344 39.277344 L 331.910156 43.195313 Z M 318.652344 30.757813 L 323.292969 33.117188 L 343.441406 30.757813 Z M 317.507813 26.605469 L 322.742188 26.351563 L 331.910156 18.320313 Z M 314.480469 23.519531 L 318.847656 20.742188 L 322.742188 9.210938 Z M 310.308594 22.457031 L 312.710938 17.8125 L 310.308594 1.757813 Z M 310.308594 39.082031 L 307.96875 43.703125 L 310.308594 67.941406 Z M 317.035156 26.902344 L 322.84375 26.566406 L 333.050781 17.679688 L 320.203125 22.003906 Z M 314.222656 24.03125 L 319.085938 20.898438 L 323.492188 8.050781 L 314.480469 18.285156 Z M 310.308594 23.023438 L 312.945313 17.8125 L 310.308594 0.00390625 L 307.691406 17.8125 Z M 306.433594 24.03125 L 306.136719 18.285156 L 297.203125 8.050781 L 301.574219 20.898438 Z M 303.65625 26.902344 L 300.472656 22.003906 L 287.644531 17.679688 L 297.832031 26.566406 Z M 302.554688 30.757813 L 297.402344 28.160156 L 274.972656 30.757813 L 297.402344 33.433594 Z M 303.65625 34.652344 L 297.832031 34.96875 L 287.644531 43.878906 L 300.472656 39.46875 Z M 306.433594 37.464844 L 301.574219 40.652344 L 297.203125 53.464844 L 306.136719 43.25 Z M 314.222656 37.464844 L 314.480469 43.308594 L 323.492188 53.464844 L 319.085938 40.652344 Z M 315.757813 57.453125 C 318.101563 59.144531 319.515625 59.445313 318.765625 60.566406 C 318.453125 61.015625 315.621094 63.847656 315.621094 65.386719 L 315.621094 91.117188 C 315.621094 92.320313 316.011719 94.132813 320.421875 95.113281 C 320.578125 97.492188 312.746094 103.789063 310.820313 103.121094 C 307.632813 101.824219 306.589844 96.082031 302.910156 97.078125 C 302.398438 97.078125 301.925781 95.902344 302.125 95.113281 C 303.285156 94.089844 305.488281 92.890625 305.546875 91.117188 L 305.546875 65.402344 C 305.585938 64.085938 305.546875 61.839844 302.554688 61.410156 C 300.371094 61.035156 300.3125 60.582031 301.613281 59.230469 C 303.226563 57.453125 306.335938 54.820313 308.65625 53.265625 L 307.691406 43.683594 L 310.308594 38.546875 L 312.945313 43.683594 L 312.019531 53.105469 C 312.90625 54.488281 314.421875 56.429688 315.757813 57.453125 M 339.308594 34.433594 L 339.308594 91.117188 C 339.308594 92.320313 339.664063 94.132813 344.070313 95.113281 C 344.265625 97.492188 336.398438 103.789063 334.46875 103.121094 C 331.28125 101.824219 330.21875 96.082031 326.558594 97.078125 C 326.066406 97.078125 325.574219 95.902344 325.773438 95.113281 C 326.953125 94.089844 329.15625 92.890625 329.195313 91.117188 L 329.195313 42.578125 L 320.203125 39.46875 L 317.035156 34.652344 L 322.84375 34.96875 L 329.195313 40.515625 L 329.195313 32.722656 L 323.253906 33.433594 L 318.082031 30.757813 L 323.253906 28.160156 L 329.195313 28.824219 L 329.195313 25.582031 C 329.195313 25.152344 328.898438 23.835938 329.316406 23.65625 C 331.871094 23.222656 332.914063 27.140625 334.628906 26.09375 C 335.335938 25.839844 343.441406 16.039063 345.09375 17.730469 C 345.585938 18.503906 341.15625 22.847656 339.703125 29.949219 L 339.703125 30.085938 L 345.644531 30.757813 L 339.507813 31.480469 C 339.386719 32.449219 339.308594 33.433594 339.308594 34.433594 M 524.503906 103.121094 C 521.28125 101.824219 520.296875 96.082031 516.636719 97.078125 C 516.066406 97.078125 515.632813 95.902344 515.789063 95.113281 C 516.988281 94.089844 519.175781 92.890625 519.253906 91.117188 L 519.253906 63.554688 C 519.253906 60.328125 510.460938 62.765625 510.320313 61.214844 C 510.320313 58.972656 510.949219 57.476563 511.71875 55.371094 C 512.40625 52.816406 519.253906 54.859375 519.253906 53.324219 L 519.253906 37.25 C 519.253906 35.222656 525.019531 31.132813 528.066406 29.808594 C 529.363281 29.144531 529.40625 30.167969 529.308594 31.566406 L 529.308594 53.265625 C 529.246094 55.09375 540.621094 51 537.550781 58.582031 C 536.960938 59.933594 535.976563 61.292969 535.03125 61.546875 C 532.574219 62.296875 529.246094 61.035156 529.308594 63.789063 L 529.308594 91.117188 C 529.308594 92.320313 529.722656 94.132813 534.085938 95.113281 C 534.285156 97.492188 526.414063 103.789063 524.503906 103.121094 M 80.191406 103.121094 C 76.96875 101.824219 75.902344 96.082031 72.285156 97.078125 C 71.753906 97.078125 71.28125 95.902344 71.457031 95.113281 C 72.640625 94.089844 74.84375 92.890625 74.902344 91.117188 L 74.902344 25.582031 C 74.902344 25.152344 74.605469 23.835938 75.039063 23.65625 C 77.535156 23.222656 78.597656 27.140625 80.371094 26.09375 C 81.019531 25.839844 89.125 16.039063 90.777344 17.730469 C 91.40625 18.632813 84.953125 24.65625 84.953125 34.433594 L 84.953125 63.144531 C 86.804688 61.863281 99.988281 52.085938 101.972656 52.324219 C 104.433594 51.871094 111.75 58.582031 112.34375 61.546875 C 112.34375 62.390625 109.980469 63.355469 110.023438 64.617188 L 110.023438 91.117188 C 110.023438 92.320313 110.414063 94.132813 114.820313 95.113281 C 114.980469 97.492188 107.148438 103.789063 105.203125 103.121094 C 101.992188 101.824219 100.972656 96.082031 97.292969 97.078125 C 96.800781 97.078125 96.328125 95.902344 96.523438 95.113281 C 97.644531 94.089844 99.828125 92.890625 99.90625 91.117188 L 99.90625 65.800781 C 99.828125 62.550781 95.578125 60.683594 93.613281 62.234375 L 84.953125 68.121094 L 84.953125 91.117188 C 84.996094 92.320313 85.390625 94.132813 89.757813 95.113281 C 89.953125 97.492188 82.121094 103.789063 80.191406 103.121094 M 10.25 83.308594 C 6.257813 73.824219 6.257813 61.410156 9.601563 51.691406 C 12.082031 44.410156 17.589844 38.230469 23.726563 33.652344 C 25.617188 32.15625 28.722656 29.871094 31.363281 28.6875 C 32.246094 28.261719 35.058594 27.316406 32.542969 29.871094 C 27.703125 36.191406 20.304688 42.898438 18.179688 54.585938 C 16.429688 64.695313 18.808594 76.128906 26.011719 84.230469 C 31.578125 90.449219 35.925781 93.816406 44.34375 95.191406 C 48.832031 95.902344 54.695313 96 58.707031 92.929688 L 58.707031 30.460938 C 55.796875 30.285156 53.121094 29.808594 50.011719 29.5 C 48.753906 30.714844 47.554688 31.640625 46.492188 33.253906 L 46.492188 74.335938 C 45.960938 81.046875 43.675781 85.507813 36.96875 87.773438 C 36.082031 87.933594 33.878906 88.285156 33.996094 87.617188 C 34.492188 85.117188 35.375 80.175781 35.277344 76.699219 L 35.277344 49.566406 C 35.257813 40.691406 32.953125 45.15625 29.84375 46.046875 C 29.097656 45.984375 28.882813 45.355469 28.25 44.351563 C 29.472656 43.488281 39.507813 35.339844 41.316406 33.433594 C 43.066406 31.761719 44.582031 30.285156 45.054688 28.515625 C 42.042969 27.316406 35.078125 25.410156 31.402344 24.734375 C 23.492188 23.835938 13.65625 22.652344 6.628906 28.90625 C 2.96875 32.15625 0.117188 39.179688 6.511719 46.558594 C 7.457031 47.597656 8.5 49.644531 5.6875 47.441406 C 2.300781 44.039063 -0.984375 40.496094 0.273438 31.9375 C 1.339844 25.152344 11.449219 14.347656 26.046875 14.542969 C 41.433594 14.542969 55.046875 18.953125 70.316406 18.261719 C 70.710938 18.261719 71.617188 17.730469 71.734375 18.632813 C 72.71875 24.734375 66.304688 29.714844 62.488281 30.5 C 62.015625 30.679688 62.332031 32.664063 62.132813 33.140625 L 62.132813 87.617188 C 62.25 88.226563 62.800781 90.527344 63.746094 90.878906 C 64.375 91.078125 65.988281 89.824219 66.792969 89.054688 C 69.726563 86.277344 71.28125 83.035156 70.671875 85.925781 C 67.957031 97.945313 57.488281 102.960938 46.234375 103.847656 C 30.890625 105.027344 16.644531 98.359375 10.25 83.308594 M 131.898438 65.757813 L 131.898438 78.683594 C 134.535156 77.386719 141.382813 72.703125 143.273438 71.25 C 144.335938 70.441406 139.929688 64.898438 138.175781 62.390625 C 136.386719 60.367188 135.441406 58.066406 132.054688 60.839844 C 131.546875 61.332031 131.898438 64.125 131.898438 65.757813 M 121.746094 91.492188 L 121.746094 65.34375 C 121.746094 64.007813 119.308594 62.609375 118.640625 61.25 C 118.246094 60.425781 118.421875 59.992188 119.167969 59.957031 C 121.117188 60.054688 123.125 60.09375 125.050781 59.636719 C 130.089844 58.65625 133.550781 56.550781 137.054688 53.757813 C 140.988281 49.746094 145.433594 54.660156 147.34375 57.398438 C 148.996094 59.992188 154.800781 67.6875 152.675781 69.714844 C 147.011719 74.335938 138.074219 79.667969 131.898438 83.878906 L 131.898438 90.09375 C 131.898438 91.335938 141.027344 95.84375 142.210938 95.210938 C 142.878906 95.113281 144.058594 94.484375 145.199219 93.695313 C 148.742188 91.394531 149.015625 93.246094 145.925781 95.804688 C 144.492188 97.257813 135.363281 103.515625 133.550781 103.238281 C 130.324219 102.828125 123.96875 95.585938 119.210938 97.078125 C 118.679688 97.078125 118.226563 95.902344 118.402344 95.113281 C 119.503906 94.191406 121.46875 93.023438 121.746094 91.492188 M 357.703125 122.992188 C 356.109375 122.914063 356.152344 120.355469 358.117188 120.789063 C 366.144531 122.050781 377.714844 122.300781 383.460938 118.308594 C 387.867188 115.261719 381.6875 112.253906 374.566406 114.648438 C 369.882813 115.671875 358.316406 120.574219 353.867188 116.832031 C 348.753906 112.507813 356.445313 106.035156 360.105469 103.710938 C 360.636719 103.300781 361.460938 102.808594 360.28125 102.46875 C 356.210938 101.09375 351.585938 96.375 351.625 91.785156 L 351.625 65.402344 C 351.625 62.90625 349.796875 61.863281 346.980469 62.515625 C 345.347656 62.925781 343.988281 62.21875 346.058594 60.878906 C 349.226563 58.554688 352.238281 56.039063 355.164063 52.96875 C 356.582031 52.066406 357.410156 52.242188 358.117188 53.128906 C 360.046875 55.390625 360.320313 56.257813 361.894531 57.453125 C 364.234375 59.144531 365.632813 59.445313 364.886719 60.566406 C 364.609375 61.015625 361.738281 63.847656 361.738281 65.386719 L 361.738281 91.691406 C 361.738281 97.0625 367.957031 99.539063 371.535156 99.503906 C 375.039063 99.476563 380.429688 97.0625 380.429688 91.765625 L 380.429688 65.402344 C 380.429688 62.90625 378.578125 61.863281 375.785156 62.515625 C 374.152344 62.925781 372.796875 62.21875 374.878906 60.878906 C 378.070313 58.554688 381 56.039063 383.933594 52.96875 C 385.347656 52.066406 386.214844 52.242188 386.921875 53.128906 C 388.828125 55.390625 389.085938 56.257813 390.738281 57.453125 C 393.019531 59.144531 394.4375 59.445313 393.6875 60.566406 C 393.355469 61.015625 390.5625 63.847656 390.5625 65.386719 L 390.5625 91.609375 C 390.855469 98.007813 383.539063 101.289063 378.441406 102.632813 C 375.941406 103.238281 359.238281 104.929688 359.238281 108.925781 C 359.574219 112.09375 364.964844 109.773438 373.464844 106.898438 C 378.875 105.007813 388.140625 105.839844 389.402344 111.761719 C 390.1875 115.769531 387.433594 119.589844 383.539063 121.144531 C 375.550781 124.269531 366.300781 122.992188 357.703125 122.992188 M 485.214844 94.519531 C 479.941406 89.898438 469.832031 85.316406 466.40625 84.292969 C 467.429688 82.421875 472.152344 74.785156 473.605469 72.175781 C 478.839844 73.292969 484.742188 75.046875 489.367188 77.484375 C 490.800781 78.152344 493.402344 81.125 490.683594 83.878906 C 489.40625 84.980469 490.683594 85.585938 491.90625 84.804688 C 495.664063 82.917969 497.21875 77.40625 495.878906 73.867188 C 493.363281 67.351563 487.417969 64.480469 479.707031 61.941406 C 480.257813 60.527344 481.558594 58.417969 482.421875 56.808594 C 487.695313 57.652344 492.339844 59.71875 497.078125 62.652344 C 502.375 65.992188 503.238281 75.59375 499.773438 80.890625 C 497.75 83.976563 487.085938 96.082031 485.214844 94.519531 M 425.304688 120.511719 C 414.386719 119.570313 418.105469 108.3125 422.925781 102.90625 C 432.113281 92.65625 442.839844 87.421875 456.886719 92.398438 C 454.761719 96.824219 435.382813 121.417969 425.304688 120.511719 M 423.675781 122.558594 C 415.960938 121.519531 414.109375 114.492188 417.0625 106.976563 C 420.683594 97.769531 431.386719 88.679688 443.78125 84.945313 C 450.15625 83.015625 456.117188 82.71875 462.667969 83.582031 C 464.28125 80.808594 468.453125 74.21875 469.949219 70.953125 C 458.871094 68.082031 446.101563 64.066406 440.199219 57.355469 C 435.480469 52.066406 436.382813 43.703125 439.570313 37.449219 C 439.804688 36.367188 441.304688 35.558594 441.027344 37.71875 C 441.027344 43.878906 442.601563 46.417969 447.007813 50.0625 C 452.515625 54.78125 468.691406 59.089844 475.949219 60.976563 C 476.71875 59.914063 478.269531 57.023438 479.035156 55.667969 C 471.050781 53.757813 458.339844 49.84375 451.59375 44.566406 C 444.019531 38.707031 443.703125 30.480469 446.261719 24.300781 C 450.863281 13.066406 465.464844 11.378906 476.324219 12.988281 C 481.675781 13.796875 486.394531 15.742188 491.15625 18.261719 C 493.28125 19.171875 494.9375 18.085938 497.964844 17.160156 C 500.289063 20.113281 482.816406 33.023438 481.359375 30.285156 C 476.757813 21.511719 463.988281 13.640625 454.660156 20.074219 C 451.515625 22.28125 447.125 28.6875 454.523438 34.652344 C 461.332031 40.179688 475.222656 42.703125 485.765625 45.648438 C 489.445313 40.90625 493.125 36.128906 497.121094 31.503906 C 499.027344 29.304688 504.320313 23.0625 504.125 26.113281 C 504.789063 31.664063 497.394531 35.71875 494.304688 39.847656 C 493.28125 41.28125 489.957031 45.355469 489.074219 46.96875 C 493.28125 48.859375 499.027344 50.664063 504.339844 57.355469 C 511.777344 66.742188 506.601563 78.527344 501.191406 85.097656 C 499.304688 87.359375 480.53125 106.585938 477.855469 104.480469 C 471.324219 100.484375 468.257813 96.472656 460.507813 93.617188 C 453.539063 104.066406 437.640625 124.566406 423.675781 122.558594 M 227.085938 46.179688 C 221.144531 46.222656 216.144531 45.042969 216.144531 42.1875 L 216.144531 24.65625 C 218.289063 24.417969 221.695313 23.835938 228.148438 23.835938 C 238.496094 23.835938 238.398438 30.699219 238.398438 41.699219 C 238.398438 45.195313 233.027344 46.144531 227.085938 46.179688 M 216.144531 64.183594 L 216.144531 49.371094 C 216.144531 46.355469 221.359375 49.859375 227.183594 49.785156 C 232.988281 49.644531 238.398438 46.28125 238.398438 49.84375 L 238.398438 64.558594 C 238.398438 68.296875 232.652344 64.558594 227.183594 64.578125 C 221.734375 64.59375 216.105469 68.535156 216.144531 64.183594 M 191.90625 84.746094 C 193.835938 82.855469 195.488281 78.527344 195.488281 75.871094 L 195.488281 63.199219 C 195.410156 60.566406 190.964844 60.839844 189.585938 61.941406 C 187.992188 63.199219 187.640625 64.34375 186.867188 65.738281 C 186.359375 67.117188 185.886719 66.703125 185.277344 65.582031 C 184.683594 64.515625 184.273438 61.410156 184.449219 59.957031 C 185.394531 52.496094 191.238281 51.253906 193.953125 50.53125 C 195.210938 50.136719 195.410156 49.113281 195.449219 47.597656 L 195.449219 41.792969 C 195.449219 31.503906 207.152344 28.082031 208.296875 29.242188 C 208.515625 29.808594 206.742188 30.933594 206.699219 35.5 L 206.699219 71.796875 C 206.78125 76.640625 204.105469 79.960938 201.367188 82.066406 C 198.714844 83.976563 191.394531 85.75 191.90625 84.746094 M 226.492188 92.75 C 224.527344 92.75 219.964844 89.171875 216.105469 87.734375 L 216.105469 72.921875 C 216.105469 70.835938 216.007813 68.214844 227.160156 68.082031 C 234.855469 68 238.398438 70.539063 238.398438 72.648438 L 238.398438 84.980469 C 238.398438 88.636719 228.421875 92.847656 226.492188 92.75 M 178.390625 115.398438 C 173.195313 109.628906 174.808594 97.730469 183.132813 91.53125 C 190.863281 85.808594 202.765625 83.523438 211.933594 86.578125 L 211.933594 25.230469 C 203.632813 26.507813 194.1875 27.472656 186.394531 23.988281 C 181.125 21.609375 178.488281 16.394531 178.332031 13.738281 C 177.757813 8.804688 179.277344 11.769531 179.941406 12.988281 C 186.183594 19.878906 194.859375 17.296875 203.023438 15.765625 C 212.683594 13.953125 224.84375 10.941406 234.679688 12.398438 C 243.078125 13.738281 249.867188 20.429688 249.90625 28.753906 L 249.90625 84.589844 C 250.378906 87.34375 252.425781 88.753906 250.96875 91.15625 C 250.085938 92.75 243.238281 88.742188 233.242188 93.855469 C 229.40625 95.804688 222.148438 101.523438 219.847656 104.085938 C 218.429688 105.714844 211.1875 97.375 203.710938 95.917969 C 196.371094 94.519531 186.183594 95.804688 181.972656 102.371094 C 172.585938 116.949219 197.847656 126.257813 210.421875 111.953125 C 212.40625 109.773438 214.453125 112.09375 212.328125 113.882813 C 202.117188 122.328125 187.421875 125.507813 178.390625 115.398438 M 272.140625 94.9375 C 269.503906 94.875 266.277344 93.246094 265.667969 89.53125 C 264.9375 84.945313 268.050781 79.253906 272.335938 76.777344 C 272.964844 76.128906 274.816406 78.210938 275.289063 78.625 C 277.648438 80.453125 278.21875 79.179688 276.902344 77.304688 C 274.933594 74.589844 273.183594 71.878906 271.214844 69.359375 C 270.566406 68.394531 269.855469 66.230469 270.566406 65.894531 C 274.519531 63.925781 282.449219 59.71875 282.410156 65.546875 L 282.410156 87.359375 C 282.46875 90.605469 274.734375 95.011719 272.140625 94.9375 M 267.890625 103.238281 C 263.621094 103.058594 255.574219 99.324219 255.613281 92.121094 C 255.652344 83.015625 263.167969 79.316406 268.816406 74.335938 C 269.996094 73.46875 269.9375 73.140625 268.992188 72.109375 C 265.53125 68.628906 261.179688 65.207031 259.605469 60.230469 C 258.328125 56.257813 260.984375 51.808594 266.195313 53.207031 C 269.503906 54.132813 270.132813 58.714844 270.191406 61.136719 C 269.777344 63.496094 283.039063 56.511719 285.835938 53.304688 C 287.210938 51.609375 288.253906 52.515625 288.960938 53.382813 C 290.910156 55.683594 291.105469 56.257813 292.71875 57.453125 C 295 59.144531 296.398438 59.445313 295.648438 60.566406 C 295.160156 61.308594 292.441406 63.753906 292.484375 65.105469 L 292.484375 88.753906 C 293.191406 94.796875 300.15625 95.113281 296.300781 99.027344 C 295 100.523438 292.738281 102.332031 291.066406 103.160156 C 288.195313 104.164063 283.632813 98.203125 283.039063 95.804688 C 282.566406 93.578125 270.644531 103.160156 267.890625 103.238281 M 555.648438 94.9375 C 552.976563 94.875 549.769531 93.246094 549.15625 89.53125 C 548.453125 84.945313 551.5 79.253906 555.847656 76.777344 C 556.476563 76.128906 558.289063 78.210938 558.800781 78.625 C 561.078125 80.453125 561.710938 79.179688 560.371094 77.304688 C 558.464844 74.589844 556.632813 71.878906 554.707031 69.359375 C 554.078125 68.394531 553.367188 66.230469 554.078125 65.894531 C 558.050781 63.925781 565.921875 59.71875 565.882813 65.546875 L 565.882813 87.359375 C 565.960938 90.605469 558.246094 95.011719 555.648438 94.9375 M 551.402344 103.238281 C 547.152344 103.058594 539.085938 99.324219 539.085938 92.121094 C 539.164063 83.015625 546.640625 79.316406 552.285156 74.335938 C 553.488281 73.46875 553.488281 73.140625 552.503906 72.109375 C 549.058594 68.628906 544.671875 65.207031 543.097656 60.230469 C 541.859375 56.257813 544.4375 51.808594 549.707031 53.207031 C 552.976563 54.132813 553.605469 58.714844 553.683594 61.136719 C 553.289063 63.496094 566.511719 56.511719 569.382813 53.304688 C 570.683594 51.609375 571.746094 52.515625 572.472656 53.382813 C 574.421875 55.683594 574.617188 56.257813 576.191406 57.453125 C 578.476563 59.144531 579.890625 59.445313 579.140625 60.566406 C 578.671875 61.308594 575.933594 63.753906 575.976563 65.105469 L 575.976563 88.753906 C 576.664063 94.796875 583.667969 95.113281 579.832031 99.027344 C 578.476563 100.523438 576.230469 102.332031 574.558594 103.160156 C 571.707031 104.164063 567.101563 98.203125 566.550781 95.804688 C 566.058594 93.578125 554.175781 103.160156 551.402344 103.238281 M 598.992188 69.398438 L 598.992188 91.117188 C 598.992188 92.320313 599.410156 94.132813 603.8125 95.113281 C 603.972656 97.492188 596.140625 103.789063 594.214844 103.121094 C 590.984375 101.824219 589.964844 96.082031 586.320313 97.078125 C 585.773438 97.078125 585.339844 95.902344 585.515625 95.113281 C 586.699219 94.089844 588.859375 92.890625 588.941406 91.117188 L 588.941406 63.632813 C 588.941406 61.703125 587.171875 60.289063 585.007813 60.527344 C 583.925781 60.878906 582.332031 60.054688 584.222656 58.457031 C 586.089844 56.511719 588.507813 54.660156 590.574219 53.105469 C 594.488281 50.136719 598.992188 57.90625 598.992188 59.992188 L 598.992188 61.117188 C 599.621094 63.101563 608.890625 49.785156 610.898438 52.929688 C 613.828125 56.429688 617.234375 58.875 619.828125 59.855469 C 621.304688 60.367188 620.519531 61.449219 619.4375 62.175781 C 617.234375 63.078125 614.320313 65.992188 611.566406 65.992188 C 607.746094 65.953125 604.523438 63.632813 601.632813 65.625 C 600.15625 66.679688 598.992188 67.941406 598.992188 69.398438 "></path></g></svg>
